<svg width="40" height="40" viewBox="0 0 40 40" fill="none" xmlns="http://www.w3.org/2000/svg">
<rect width="40" height="40" rx="8" fill="white"/>
<path d="M25.406 19.3217C26.731 19.3217 27.7285 18.7467 28.464 17.7457L27.481 16.9645C27.2382 17.2978 26.9244 17.5678 26.5643 17.7533C26.2043 17.9388 25.8077 18.0346 25.406 18.0332C23.968 18.0332 22.926 16.8129 22.926 15.3155C22.926 13.8181 23.951 12.529 25.447 12.529C26.112 12.529 26.582 12.6926 26.992 12.9572V14.2738H28.229V12.354L27.992 12.1598C27.312 11.6025 26.2735 11.3066 25.4055 11.3066C23.2835 11.3066 21.5575 13.1046 21.5575 15.315C21.5575 17.5233 23.283 19.3217 25.406 19.3217ZM27.9725 27.228L27.9285 25.3827V20.8796H25.3485V22.1686H26.6255V25.2238C26.6255 26.54 25.6605 27.4717 24.687 27.4717C23.7135 27.4717 23.2055 26.7686 23.2055 25.453V20.879H20.7955V22.1681H21.9025V25.6764C21.9025 27.4618 22.8635 28.6921 24.5775 28.6921C25.5625 28.6921 26.3125 28.1228 26.76 27.2452H26.78L26.9565 28.4723H28.939V27.2296H27.974V27.227L27.9725 27.228ZM21.2725 11.4957H19.1225L17.2525 17.1519H17.2235L15.3635 11.4957H13.0725V12.7853H14.361L16.5785 19.2322H17.7565V19.2306L20.069 12.7858H21.2715V11.4962L21.2725 11.4957ZM11.0605 28.4889H12.3345V27.1624H11.061V28.4889H11.0605ZM15.9805 22.3743H15.9665L15.8865 20.8796H13.6125V22.0546H14.8225V27.2285H13.6125V28.4717H19.2325V27.253H16.1035V24.1306C16.245 23.0004 17.0585 22.0353 18.1685 22.0353H18.1885L18.166 23.1905H19.403V20.8582H18.425C17.305 20.8551 16.474 21.4863 15.98 22.3749L15.9805 22.3743Z" fill="#222222"/>
</svg>
