<svg width="18" height="18" viewBox="0 0 18 18" fill="none" xmlns="http://www.w3.org/2000/svg">
<path d="M14.4065 8.32175C15.7315 8.32175 16.729 7.74675 17.4645 6.74571L16.4815 5.96446C16.2387 6.29779 15.9249 6.56784 15.5648 6.7533C15.2047 6.93877 14.8082 7.03458 14.4065 7.03321C12.9685 7.03321 11.9265 5.81289 11.9265 4.31549C11.9265 2.81809 12.9515 1.52904 14.4475 1.52904C15.1125 1.52904 15.5825 1.69258 15.9925 1.95716V3.27382H17.2295V1.35405L16.9925 1.15977C16.3125 0.602474 15.274 0.306641 14.406 0.306641C12.284 0.306641 10.558 2.10456 10.558 4.31498C10.558 6.52331 12.2835 8.32175 14.4065 8.32175ZM16.973 16.228L16.929 14.3827V9.87956H14.349V11.1686H15.626V14.2238C15.626 15.54 14.661 16.4717 13.6875 16.4717C12.714 16.4717 12.206 15.7686 12.206 14.453V9.87903H9.79603V11.1681H10.903V14.6764C10.903 16.4618 11.864 17.6921 13.578 17.6921C14.563 17.6921 15.313 17.1228 15.7605 16.2452H15.7805L15.957 17.4723H17.9395V16.2296H16.9745V16.227L16.973 16.228ZM10.273 0.495707H8.12304L6.25304 6.15195H6.22404L4.36404 0.495707H2.07304V1.78528H3.36154L5.57904 8.23217H6.75704V8.23059L9.06954 1.78581H10.272V0.496231L10.273 0.495707ZM0.0610352 17.4889H1.33504V16.1624H0.0615352V17.4889H0.0610352ZM4.98104 11.3743H4.96704L4.88704 9.87956H2.61303V11.0546H3.82304V16.2285H2.61303V17.4717H8.23304V16.253H5.10404V13.1306C5.24554 12.0004 6.05904 11.0353 7.16904 11.0353H7.18904L7.16654 12.1905H8.40353V9.8582H7.42554C6.30554 9.85507 5.47454 10.4863 4.98054 11.3749L4.98104 11.3743Z" fill="#222222"/>
</svg>
