<svg width="40" height="40" viewBox="0 0 40 40" fill="none" xmlns="http://www.w3.org/2000/svg">
<rect width="40" height="40" rx="8" fill="white"/>
<path fill-rule="evenodd" clip-rule="evenodd" d="M30.1778 15.0239C30.3262 14.5294 30.1779 14.166 29.472 14.166H27.1381C26.5447 14.166 26.2713 14.4799 26.1229 14.8262C26.1229 14.8262 24.936 17.719 23.2546 19.5981C22.7106 20.1421 22.4634 20.3149 22.1666 20.3149C22.0183 20.3149 21.8036 20.1421 21.8036 19.6476V15.0239C21.8036 14.4304 21.6314 14.166 21.1367 14.166H17.4692C17.0985 14.166 16.8754 14.4414 16.8754 14.7025C16.8754 15.2651 17.7159 15.3948 17.8026 16.9772V20.4141C17.8026 21.1676 17.6666 21.3043 17.3699 21.3043C16.5787 21.3043 14.6542 18.3983 13.5126 15.0734C13.2889 14.4271 13.0645 14.166 12.468 14.166H10.1342C9.46735 14.166 9.33398 14.4799 9.33398 14.8262C9.33398 15.4443 10.1253 18.5104 13.0182 22.5653C14.947 25.3343 17.6639 26.8356 20.1365 26.8356C21.6202 26.8356 21.8036 26.5022 21.8036 25.9279V23.8349C21.8036 23.1681 21.9441 23.0351 22.4137 23.0351C22.7601 23.0351 23.3534 23.2081 24.7382 24.5433C26.3206 26.1255 26.5813 26.8356 27.4716 26.8356H29.8054C30.4723 26.8356 30.8057 26.5022 30.6133 25.8442C30.4029 25.1884 29.6474 24.2372 28.6448 23.1093C28.1009 22.4663 27.2848 21.774 27.0378 21.4279C26.6915 20.9828 26.7904 20.7851 27.0378 20.3896C27.0378 20.3896 29.8811 16.3839 30.1778 15.0239Z" fill="#222222"/>
</svg>
