<svg width="22" height="13" viewBox="0 0 22 13" fill="none" xmlns="http://www.w3.org/2000/svg">
<path fill-rule="evenodd" clip-rule="evenodd" d="M21.1774 1.02388C21.3257 0.529434 21.1774 0.166016 20.4715 0.166016H18.1377C17.5442 0.166016 17.2708 0.479922 17.1224 0.826169C17.1224 0.826169 15.9355 3.71901 14.2541 5.59812C13.7101 6.14208 13.4629 6.31495 13.1662 6.31495C13.0178 6.31495 12.8031 6.14208 12.8031 5.64763V1.02388C12.8031 0.430411 12.6309 0.166016 12.1363 0.166016H8.46873C8.09797 0.166016 7.87492 0.441414 7.87492 0.702474C7.87492 1.26511 8.71545 1.3948 8.80214 2.97717V6.41414C8.80214 7.16765 8.66611 7.30435 8.36937 7.30435C7.57819 7.30435 5.65374 4.39834 4.51214 1.07339C4.28842 0.427077 4.06403 0.166016 3.46756 0.166016H1.13368C0.46686 0.166016 0.333496 0.479922 0.333496 0.826169C0.333496 1.44431 1.12485 4.51036 4.01769 8.56531C5.94647 11.3343 8.66344 12.8356 11.136 12.8356C12.6197 12.8356 12.8031 12.5022 12.8031 11.9279V9.83494C12.8031 9.16811 12.9436 9.03508 13.4132 9.03508C13.7596 9.03508 14.3529 9.20812 15.7378 10.5433C17.3201 12.1255 17.5809 12.8356 18.4711 12.8356H20.8049C21.4718 12.8356 21.8052 12.5022 21.6128 11.8442C21.4024 11.1884 20.6469 10.2372 19.6443 9.10927C19.1004 8.46628 18.2844 7.77396 18.0373 7.42788C17.691 6.98277 17.7899 6.78506 18.0373 6.38963C18.0373 6.38963 20.8806 2.38387 21.1774 1.02388Z" fill="#222222"/>
</svg>
