<?xml version="1.0" standalone="no"?>
<!DOCTYPE svg PUBLIC "-//W3C//DTD SVG 20010904//EN"
 "http://www.w3.org/TR/2001/REC-SVG-20010904/DTD/svg10.dtd">
<svg version="1.0" xmlns="http://www.w3.org/2000/svg"
 width="308.000000pt" height="308.000000pt" viewBox="0 0 308.000000 308.000000"
 preserveAspectRatio="xMidYMid meet">
<metadata>
Created by potrace 1.14, written by Peter Selinger 2001-2017
</metadata>
<g transform="translate(0.000000,308.000000) scale(0.100000,-0.100000)"
fill="#000000" stroke="none">
<path d="M955 2996 c-176 -44 -333 -187 -406 -369 -18 -46 -23 -65 -38 -158
-9 -57 -4 -163 10 -207 12 -37 9 -44 -24 -49 -49 -7 -165 -47 -218 -75 -82
-43 -162 -127 -204 -212 -65 -133 -70 -166 -70 -501 l0 -300 281 0 282 0 -13
-25 c-7 -14 -70 -123 -139 -243 -69 -120 -124 -222 -121 -226 2 -4 62 -41 132
-81 70 -40 267 -154 438 -253 171 -98 329 -190 352 -203 l41 -24 21 36 c12 19
21 39 21 45 0 5 5 9 10 9 6 0 10 4 10 10 0 5 32 64 71 132 40 67 80 136 89
153 10 16 27 47 40 68 l22 38 42 -73 c23 -40 80 -138 126 -218 46 -80 90 -157
99 -172 l17 -28 174 101 c211 122 219 127 295 169 33 18 65 36 70 40 10 8 271
161 355 208 25 14 52 30 61 35 13 8 -5 45 -123 250 -76 132 -134 243 -129 246
5 3 131 6 281 5 l272 0 -5 300 c-5 326 -7 347 -38 439 -40 119 -106 210 -200
275 -55 37 -182 82 -233 82 -40 0 -40 0 -25 54 17 61 19 77 20 141 2 164 -55
302 -172 417 -109 106 -281 178 -428 178 -138 0 -302 -92 -399 -223 l-35 -49
-26 34 c-85 110 -227 203 -346 226 -71 14 -181 13 -240 -2z m242 -362 c83 -40
141 -119 201 -274 20 -52 76 -246 86 -300 2 -14 12 -56 21 -95 9 -38 19 -81
21 -94 13 -66 23 -48 94 170 97 298 134 390 189 473 51 78 100 121 156 141 32
10 48 10 99 -2 148 -34 233 -128 244 -269 3 -51 0 -70 -23 -118 -46 -98 -177
-249 -344 -396 -137 -120 -186 -170 -171 -170 8 0 94 27 190 61 269 92 366
112 555 113 87 0 106 -3 142 -23 95 -54 128 -148 128 -371 l0 -115 -385 -1
c-293 0 -384 -3 -382 -13 1 -6 46 -87 99 -179 53 -92 104 -181 113 -197 9 -17
49 -86 89 -154 40 -68 70 -128 69 -133 -3 -9 -108 -74 -233 -143 -22 -12 -80
-46 -129 -74 -49 -29 -92 -48 -97 -44 -4 4 -16 24 -27 43 -10 19 -75 132 -144
250 -68 118 -144 250 -168 293 -34 60 -47 74 -55 65 -7 -7 -94 -157 -195 -333
-100 -176 -184 -322 -186 -324 -2 -2 -22 8 -46 22 -24 13 -59 34 -78 44 -20
11 -92 53 -160 93 -69 40 -137 80 -152 87 -16 8 -28 17 -28 19 0 5 61 112 307
537 40 70 72 131 69 135 -2 4 -170 6 -373 6 -202 -1 -375 0 -384 2 -23 6 -19
234 6 321 35 123 145 188 320 186 150 -1 233 -19 508 -109 108 -35 200 -64
203 -64 3 0 -14 16 -38 36 -227 188 -338 295 -425 409 -71 93 -86 135 -80 219
5 84 32 149 83 206 86 95 199 118 311 64z"/>
</g>
</svg>
