<svg width="334" height="318" viewBox="0 0 334 318" fill="none" xmlns="http://www.w3.org/2000/svg">
<path opacity="0.2" fill-rule="evenodd" clip-rule="evenodd" d="M259.923 251.417L217.566 178.124H302.28C302.28 158.359 305.587 123.389 277.191 122.603C238.981 121.554 217.933 134.923 191.112 142.054C182.714 144.308 238.088 105.826 249.006 77.9348C252.785 68.2882 249.006 58.3794 245.489 52.2978C242.077 46.426 233.679 40.9735 227.066 39.1385C220.348 37.3036 215.414 36.3599 209.22 39.925C202.817 43.5949 196.886 50.6201 193.159 57.96C182.032 79.7698 177.413 103.834 167.231 129.419C160.617 104.358 155.106 68.2358 141.459 50.2532C129.912 35.0492 109.285 32.0084 95.3755 48.0512C86.7676 57.96 83.8808 74.6843 89.3395 84.2261C105.768 112.747 150.487 142.735 145.658 141.477C116.265 133.665 106.083 125.382 71.7038 122.708C62.571 121.974 51.2863 124.438 45.0403 128.055C28.7168 137.44 32.1285 161.976 32.1285 178.124H116.843L74.4857 251.417L124.873 280.462L167.231 207.168L209.588 280.462L233.154 266.883C234.519 266.359 235.884 265.677 237.196 264.943C238.193 264.367 239.086 263.738 239.978 262.951L260.028 251.417H259.923ZM257.823 283.45C256.301 284.604 254.674 285.652 252.995 286.596C251.158 287.645 249.216 288.641 247.274 289.532L197.936 318L167.178 264.786L136.421 318L31.0262 257.237L61.7837 204.075H0.268739V172.357C0.268739 165.436 -0.151164 158.568 0.0587852 151.595C0.741119 128.527 8.03685 106.927 29.0842 94.8165C37.2722 90.098 47.6122 87.0048 57.8472 85.7465C50.394 64.4086 56.7974 38.2473 71.3364 21.5229C97.8949 -8.98983 142.509 -6.4733 166.706 25.3501C167.755 26.7133 168.753 28.0764 169.697 29.5443C175.838 20.3171 183.921 12.1384 193.369 6.68597C207.383 -1.38785 220.348 -1.33542 235.411 2.75392C250.16 6.79083 265.329 17.3812 272.992 30.6453C282.335 46.7929 285.484 65.929 278.556 83.6494C278.346 84.1213 278.189 84.5931 277.979 85.065C292.675 85.4844 306.269 90.832 316.452 101.58C335.242 121.397 333.982 147.296 333.982 172.304V204.023H272.52L303.277 257.184L257.771 283.45H257.823Z" fill="#222222"/>
</svg>
