<svg width="398" height="80" viewBox="0 0 398 80" fill="none" xmlns="http://www.w3.org/2000/svg">
<path d="M349.517 44.4574V42.5145L351.985 42.4182C352.798 42.3832 353.315 42.2694 353.551 42.0594C353.796 41.8493 353.91 41.3942 353.91 40.7116V26.6823C353.91 25.9471 353.709 25.457 353.289 25.2032C352.868 24.9582 352.002 24.8357 350.681 24.8357C350.505 24.8357 350.225 24.8357 349.84 24.8619C349.455 24.8794 349.14 24.8882 348.921 24.8882V23.0853L358.846 22.5164V26.9536C360.054 25.4395 361.375 24.3105 362.811 23.6016C364.246 22.8752 365.865 22.5164 367.685 22.5164C369.69 22.5164 371.335 22.884 372.63 23.6279C373.926 24.3631 374.862 25.457 375.457 26.9099C376.709 25.3783 378.048 24.2668 379.483 23.5666C380.91 22.8665 382.581 22.5164 384.472 22.5164C387.15 22.5164 389.215 23.1553 390.685 24.4418C392.147 25.7284 392.882 27.5487 392.882 29.9118V40.7204C392.882 41.3943 393.005 41.8406 393.25 42.0594C393.495 42.2782 394.011 42.4007 394.808 42.427L397.276 42.5232V44.4662H383.43V42.5232L385.723 42.427C386.52 42.392 387.045 42.2694 387.307 42.0331C387.57 41.8056 387.701 41.368 387.701 40.7204V29.7367C387.701 28.3364 387.272 27.2599 386.415 26.516C385.557 25.7634 384.314 25.387 382.712 25.387C380.393 25.387 378.66 26.0259 377.514 27.3037C376.376 28.5815 375.798 30.5156 375.798 33.0974V40.7204C375.798 41.3943 375.921 41.8406 376.184 42.0594C376.437 42.2782 376.954 42.4007 377.75 42.427L380.218 42.5232V44.4662H366.373V42.5232L368.718 42.427C369.488 42.392 370.005 42.2694 370.259 42.0419C370.521 41.8143 370.644 41.3767 370.644 40.7204V30.4106C370.644 28.6252 370.267 27.3387 369.523 26.551C368.779 25.7721 367.572 25.3783 365.891 25.3783C363.677 25.3783 362.005 26.0259 360.876 27.3212C359.747 28.6252 359.179 30.5419 359.179 33.0887V40.7116C359.179 41.4118 359.301 41.8668 359.546 42.0769C359.8 42.2782 360.308 42.392 361.104 42.427L363.292 42.5232V44.4662H349.552L349.517 44.4574ZM325.484 33.7888C325.484 37.0796 326.044 39.4951 327.164 41.0267C328.293 42.5495 330.061 43.3109 332.485 43.3109C334.91 43.3109 336.809 42.5583 337.938 41.0529C339.058 39.5564 339.618 37.1321 339.618 33.7888C339.618 30.4456 339.058 28.0213 337.938 26.5073C336.809 24.9932 335.006 24.2318 332.538 24.2318C330.07 24.2318 328.293 24.9932 327.164 26.5073C326.044 28.0213 325.484 30.4544 325.484 33.7888ZM319.506 33.7888C319.506 30.3756 320.714 27.6188 323.13 25.5096C325.545 23.3916 328.678 22.3414 332.529 22.3414C336.38 22.3414 339.539 23.3916 341.937 25.5096C344.335 27.6188 345.534 30.3844 345.534 33.7888C345.534 37.1933 344.335 39.9414 341.929 42.0506C339.522 44.1511 336.389 45.2101 332.529 45.2101C328.67 45.2101 325.545 44.1598 323.13 42.0506C320.714 39.9414 319.506 37.1933 319.506 33.7888ZM295.587 33.7888C295.587 37.0796 296.147 39.4951 297.268 41.0267C298.397 42.5495 300.165 43.3109 302.589 43.3109C305.013 43.3109 306.912 42.5583 308.041 41.0529C309.161 39.5564 309.722 37.1321 309.722 33.7888C309.722 30.4456 309.161 28.0213 308.041 26.5073C306.912 24.9932 305.109 24.2318 302.641 24.2318C300.173 24.2318 298.397 24.9932 297.268 26.5073C296.147 28.0213 295.587 30.4544 295.587 33.7888ZM289.61 33.7888C289.61 30.3756 290.818 27.6188 293.233 25.5096C295.649 23.3916 298.782 22.3414 302.633 22.3414C306.483 22.3414 309.643 23.3916 312.041 25.5096C314.439 27.6188 315.638 30.3844 315.638 33.7888C315.638 37.1933 314.439 39.9414 312.032 42.0506C309.625 44.1511 306.492 45.2101 302.633 45.2101C298.773 45.2101 295.649 44.1598 293.233 42.0506C290.818 39.9414 289.61 37.1933 289.61 33.7888ZM271.843 44.4574V42.5145L274.618 42.4182C275.414 42.3832 275.939 42.2607 276.202 42.0506C276.464 41.8318 276.596 41.3855 276.596 40.7116V14.4384C276.596 13.7032 276.394 13.2131 275.974 12.9593C275.563 12.7143 274.705 12.5918 273.419 12.5918C273.261 12.5918 272.999 12.5917 272.622 12.618C272.246 12.6355 271.94 12.6443 271.712 12.6443V10.8414L281.882 10.2812V40.7204C281.882 41.3943 282.004 41.8406 282.267 42.0594C282.521 42.2782 283.055 42.4007 283.86 42.427L286.38 42.5232V44.4662H271.817L271.843 44.4574ZM243.942 15.2348V26.1747H248.581C252.624 26.1747 255.425 25.6933 257 24.7131C258.576 23.7329 259.372 22.0526 259.372 19.6545C259.372 17.2565 258.689 15.7074 257.307 14.7097C255.932 13.712 253.648 13.2131 250.48 13.2131H246.83C245.701 13.2131 244.931 13.3444 244.538 13.6157C244.144 13.8783 243.942 14.4209 243.942 15.2436V15.2348ZM231.637 44.4574V42.2957H234.648C235.873 42.2957 236.696 42.1382 237.116 41.8318C237.527 41.5255 237.737 40.9304 237.737 40.064V15.5061C237.737 14.6484 237.536 14.0708 237.116 13.7558C236.696 13.4494 235.882 13.2919 234.648 13.2919H231.637V11.1039H253.569C257.639 11.1039 260.746 11.7953 262.881 13.1781C265.017 14.5522 266.085 16.5826 266.085 19.2432C266.085 21.2386 265.271 22.884 263.634 24.1793C261.998 25.4745 259.564 26.3935 256.344 26.9536C260.326 27.3562 263.31 28.2664 265.28 29.6755C267.249 31.0933 268.238 33.0274 268.238 35.4955C268.238 38.3311 266.89 40.5366 264.212 42.0944C261.534 43.661 257.744 44.4399 252.852 44.4399H231.637V44.4574ZM243.942 28.2051V40.1077C243.942 40.9917 244.152 41.578 244.581 41.8581C245.01 42.1469 245.85 42.2869 247.119 42.2869H251.259C254.768 42.2869 257.307 41.7443 258.847 40.6591C260.396 39.5651 261.166 37.806 261.166 35.3729C261.166 32.8174 260.238 30.9795 258.392 29.868C256.536 28.7565 253.464 28.1964 249.159 28.1964H243.942V28.2051ZM200.761 14.4472C200.761 13.712 200.55 13.2219 200.122 12.9681C199.693 12.723 198.826 12.6005 197.505 12.6005C197.347 12.6005 197.076 12.6005 196.691 12.6268C196.306 12.6443 195.991 12.653 195.772 12.653V10.8501L206.029 10.29V26.6998C207.176 25.2995 208.515 24.258 210.029 23.5666C211.56 22.8752 213.276 22.5252 215.201 22.5252C217.975 22.5252 220.137 23.164 221.66 24.4506C223.192 25.7371 223.953 27.5575 223.953 29.9205V40.7291C223.953 41.403 224.076 41.8493 224.321 42.0681C224.566 42.2869 225.082 42.4095 225.878 42.4357L228.373 42.532V44.4749H214.378V42.532L216.873 42.4357C217.643 42.4007 218.159 42.2782 218.413 42.0506C218.676 41.8231 218.798 41.3855 218.798 40.7291V29.7455C218.798 28.3452 218.334 27.2687 217.407 26.5248C216.488 25.7721 215.175 25.3958 213.468 25.3958C211 25.3958 209.127 26.0434 207.858 27.3387C206.598 28.6427 205.959 30.5594 205.959 33.1062V40.7291C205.959 41.4293 206.082 41.8844 206.344 42.0944C206.598 42.2957 207.106 42.4095 207.885 42.4445L210.379 42.5407V44.4837H196.332V42.5407L198.765 42.4445C199.579 42.4095 200.113 42.2869 200.358 42.0769C200.62 41.8581 200.743 41.403 200.743 40.7379V14.4647L200.761 14.4472ZM177.612 25.1245H172.973V23.2691C175.371 23.1203 177.227 22.2363 178.557 20.6172C179.87 18.9894 180.605 16.6964 180.736 13.712H183.169V23.094H191.527V25.1245H182.889V38.4711C182.889 39.9589 183.152 40.9917 183.677 41.5518C184.193 42.1119 185.068 42.4007 186.32 42.4007C187.886 42.4007 189.059 41.8931 189.829 40.8779C190.6 39.8627 191.037 38.2786 191.133 36.1256L193.286 36.0993V36.712C193.286 39.4951 192.516 41.613 190.967 43.0746C189.418 44.5274 187.169 45.2626 184.228 45.2626C181.83 45.2626 180.124 44.79 179.126 43.8535C178.128 42.9171 177.629 41.2542 177.629 38.8825V25.1332L177.612 25.1245ZM157.832 40.7204C157.832 41.403 157.955 41.8581 158.2 42.0681C158.454 42.2869 158.961 42.4007 159.758 42.427L163.276 42.5232V44.4662H148.004V42.5232L150.717 42.427C151.514 42.392 152.03 42.2782 152.275 42.0681C152.52 41.8581 152.643 41.403 152.643 40.7204V26.6998C152.643 25.9647 152.441 25.4745 152.03 25.2382C151.627 25.0107 150.665 24.8882 149.159 24.8882H147.426V23.0853L157.509 22.5252V29.0366C158.419 26.8573 159.592 25.2032 161.018 24.083C162.462 22.954 164.116 22.3939 165.98 22.3939C167.53 22.3939 168.807 22.7615 169.788 23.5141C170.785 24.258 171.275 25.1945 171.275 26.3235C171.275 27.1637 170.96 27.8551 170.33 28.3889C169.691 28.9228 168.886 29.1853 167.906 29.1853C166.856 29.1853 166.024 28.9491 165.403 28.4764C164.79 27.9951 164.484 27.3562 164.484 26.5423C164.484 26.1222 164.589 25.7371 164.79 25.387C165 25.0457 165.28 24.7656 165.639 24.5556H165.298C163.276 24.5556 161.526 25.6408 160.038 27.8026C158.559 29.9643 157.815 32.6248 157.815 35.7843V40.7291L157.832 40.7204ZM124.286 33.7976C124.286 37.0883 124.847 39.5038 125.967 41.0354C127.096 42.5582 128.864 43.3197 131.288 43.3197C133.712 43.3197 135.611 42.567 136.74 41.0617C137.861 39.5651 138.421 37.1408 138.421 33.7976C138.421 30.4544 137.861 28.0301 136.74 26.516C135.611 25.0019 133.808 24.2405 131.34 24.2405C128.872 24.2405 127.096 25.0019 125.967 26.516C124.847 28.0301 124.286 30.4631 124.286 33.7976ZM118.309 33.7976C118.309 30.3844 119.517 27.6275 121.932 25.5183C124.348 23.4003 127.481 22.3501 131.332 22.3501C135.183 22.3501 138.342 23.4003 140.74 25.5183C143.138 27.6275 144.337 30.3931 144.337 33.7976C144.337 37.2021 143.138 39.9502 140.731 42.0594C138.324 44.1599 135.191 45.2188 131.332 45.2188C127.472 45.2188 124.348 44.1686 121.932 42.0594C119.517 39.9502 118.309 37.2021 118.309 33.7976ZM70.7686 44.4662V42.4795C73.2016 42.3219 74.8557 41.8756 75.7221 41.1142C76.5798 40.3528 77.0087 38.8387 77.0087 36.5632V14.7622C76.6148 14.2109 76.0285 13.817 75.2758 13.5895C74.5231 13.3707 73.3504 13.2481 71.7663 13.2481H70.7686V11.1127H82.1023L105.199 36.2919V19.0244C105.199 16.6264 104.726 15.0423 103.781 14.2721C102.844 13.5195 101.006 13.1169 98.2845 13.0906V11.1039H114.493V13.0906C112.034 13.1781 110.362 13.6157 109.487 14.4034C108.594 15.1911 108.157 16.7314 108.157 19.0156V45.2801H105.837L80.0281 17.2478V36.5457C80.0281 38.8912 80.5182 40.4665 81.4984 41.263C82.4874 42.0594 84.299 42.4532 86.9421 42.4532V44.4399H70.7861L70.7686 44.4662Z" fill="white"/>
<path fill-rule="evenodd" clip-rule="evenodd" d="M43.3405 41.97L36.2777 29.7348H50.4032C50.4032 26.4354 50.9546 20.5978 46.2198 20.4666C39.8484 20.2915 36.3389 22.5233 31.8667 23.7135C30.4664 24.0898 39.6997 17.666 41.5201 13.0099C42.1502 11.3996 41.5201 9.74549 40.9337 8.73027C40.3648 7.75005 38.9645 6.83986 37.8618 6.53354C36.7415 6.22722 35.9188 6.06969 34.8861 6.66482C33.8184 7.27745 32.8294 8.4502 32.208 9.67547C30.3526 13.3163 29.5825 17.3334 27.8846 21.6043C26.7819 17.4209 25.8629 11.3908 23.5874 8.38894C21.662 5.85089 18.2225 5.34328 15.9032 8.02136C14.4679 9.67547 13.9866 12.4673 14.8968 14.0602C17.6361 18.8212 25.0927 23.8273 24.2876 23.6172C19.3865 22.3132 17.6886 20.9304 11.9561 20.4841C10.4333 20.3615 8.55166 20.7729 7.51018 21.3768C4.78834 22.9434 5.35722 27.0392 5.35722 29.7348H19.4828L12.42 41.97L20.8218 46.8185L27.8846 34.5834L34.9474 46.8185L38.877 44.5518C39.1045 44.4643 39.3321 44.3505 39.5509 44.228C39.7172 44.1317 39.866 44.0267 40.0147 43.8954L43.358 41.97H43.3405ZM42.9904 47.3174C42.7366 47.5099 42.4653 47.685 42.1852 47.8425C41.8789 48.0175 41.5551 48.1838 41.2312 48.3326L33.0045 53.0849L27.8758 44.2017L22.7472 53.0849L5.17342 42.9414L10.302 34.067H0.0448104V28.7721C0.0448104 27.6169 -0.0252056 26.4704 0.00980204 25.3064C0.123577 21.4555 1.34009 17.8497 4.8496 15.8281C6.2149 15.0404 7.93902 14.524 9.64564 14.314C8.40287 10.752 9.4706 6.38476 11.8949 3.5929C16.3233 -1.5007 23.7625 -1.08061 27.7971 4.23179C27.9721 4.45934 28.1384 4.68689 28.2959 4.93194C29.3199 3.39161 30.6677 2.02631 32.243 1.11611C34.5798 -0.231678 36.7415 -0.222927 39.2533 0.459721C41.7126 1.13362 44.2419 2.9015 45.5197 5.11573C47.0775 7.81132 47.6026 11.0058 46.4474 13.9639C46.4124 14.0427 46.3861 14.1214 46.3511 14.2002C48.8016 14.2702 51.0684 15.1629 52.7662 16.9571C55.8994 20.2653 55.6894 24.5887 55.6894 28.7634V34.0583H45.4409L50.5695 42.9327L42.9816 47.3174H42.9904Z" fill="white"/>
<path d="M397.751 53.7617H214.101V79.9996H397.751V53.7617Z" fill="#E3000F"/>
<path d="M232.497 68.793L235.452 69.6595C234.997 71.2506 234.244 72.4296 233.186 73.2038C232.128 73.971 230.792 74.3616 229.173 74.3616C227.163 74.3616 225.515 73.7082 224.222 72.3941C222.93 71.0801 222.283 69.2902 222.283 67.0102C222.283 64.6023 222.937 62.7343 224.229 61.406C225.529 60.0707 227.234 59.4102 229.351 59.4102C231.197 59.4102 232.703 59.9358 233.854 60.9799C234.543 61.5978 235.054 62.4857 235.402 63.6505L232.383 64.3395C232.206 63.5937 231.829 63.0042 231.268 62.5638C230.7 62.1305 230.011 61.9175 229.201 61.9175C228.079 61.9175 227.17 62.301 226.474 63.0681C225.771 63.8352 225.423 65.0782 225.423 66.8042C225.423 68.6296 225.771 69.9294 226.453 70.7037C227.142 71.4779 228.036 71.8685 229.137 71.8685C229.947 71.8685 230.65 71.6199 231.233 71.1298C231.815 70.6326 232.241 69.8584 232.49 68.8001" fill="white"/>
<path d="M240.836 59.6641H237.945V74.1112H240.836V59.6641Z" fill="white"/>
<path d="M243.897 74.1183V63.6416H246.788V74.1183H243.897ZM243.897 62.2282V59.6641H246.788V62.2282H243.897Z" fill="white"/>
<path d="M249.884 63.6421H252.541V65.0697C253.492 63.9688 254.629 63.4219 255.95 63.4219C256.653 63.4219 257.257 63.5568 257.768 63.8338C258.287 64.1109 258.706 64.5299 259.032 65.0839C259.515 64.5228 260.034 64.1109 260.588 63.8338C261.142 63.5568 261.739 63.4219 262.371 63.4219C263.173 63.4219 263.848 63.5781 264.409 63.8907C264.963 64.2032 265.382 64.6578 265.652 65.2686C265.851 65.709 265.951 66.4335 265.951 67.435V74.1187H263.06V68.1453C263.06 67.1082 262.96 66.4335 262.761 66.1352C262.492 65.7445 262.08 65.5456 261.526 65.5456C261.121 65.5456 260.737 65.6664 260.382 65.9008C260.027 66.1423 259.764 66.4832 259.608 66.9378C259.452 67.3924 259.373 68.1168 259.373 69.097V74.1187H256.483V68.3868C256.483 67.3711 256.433 66.7105 256.326 66.4193C256.227 66.121 256.063 65.9008 255.85 65.7587C255.637 65.6167 255.339 65.5456 254.97 65.5456C254.522 65.5456 254.124 65.6593 253.769 65.8866C253.414 66.121 253.158 66.4477 253.002 66.8809C252.846 67.3142 252.768 68.0316 252.768 69.0402V74.1258H249.877V63.6492L249.884 63.6421Z" fill="white"/>
<path d="M274.978 69.1105C274.609 69.2313 274.019 69.3662 273.217 69.5367C272.414 69.7001 271.889 69.8634 271.64 70.0197C271.264 70.2754 271.072 70.6021 271.072 70.9928C271.072 71.3834 271.221 71.7173 271.526 72.0014C271.832 72.2855 272.215 72.4276 272.677 72.4276C273.196 72.4276 273.7 72.2642 274.169 71.9375C274.517 71.6818 274.751 71.3834 274.858 71.0212C274.929 70.7868 274.971 70.3322 274.971 69.6717V69.1176L274.978 69.1105ZM271.093 66.8731L268.479 66.4257C268.778 65.4028 269.282 64.6428 270.006 64.1528C270.731 63.6627 271.796 63.4141 273.217 63.4141C274.51 63.4141 275.468 63.5561 276.101 63.8544C276.733 64.1457 277.173 64.515 277.436 64.9696C277.692 65.4171 277.819 66.241 277.819 67.4485L277.777 70.6803C277.777 71.5965 277.819 72.2784 277.912 72.7117C278.004 73.152 278.175 73.6137 278.43 74.1109H275.561C275.49 73.9262 275.39 73.6634 275.284 73.3012C275.241 73.1378 275.206 73.0313 275.184 72.9816C274.694 73.4433 274.162 73.7913 273.6 74.0257C273.039 74.2601 272.443 74.3737 271.803 74.3737C270.681 74.3737 269.793 74.0825 269.147 73.493C268.501 72.9105 268.174 72.1718 268.174 71.2769C268.174 70.6874 268.323 70.1617 268.614 69.693C268.913 69.2313 269.317 68.8761 269.857 68.6275C270.39 68.3789 271.157 68.1658 272.159 67.9812C273.508 67.7397 274.446 67.5124 274.971 67.2993V67.0223C274.971 66.4825 274.836 66.0989 274.559 65.8716C274.282 65.6443 273.764 65.5307 272.997 65.5307C272.478 65.5307 272.08 65.6301 271.789 65.829C271.498 66.0208 271.264 66.3688 271.086 66.866L271.093 66.8731Z" fill="white"/>
<path d="M285.726 63.6445V65.8463H283.744V70.0867C283.744 70.9462 283.765 71.4505 283.801 71.5925C283.837 71.7346 283.922 71.8482 284.064 71.9477C284.199 72.04 284.362 72.0826 284.554 72.0826C284.824 72.0826 285.214 71.9974 285.719 71.8198L285.96 73.972C285.286 74.249 284.533 74.3839 283.68 74.3839C283.162 74.3839 282.693 74.2987 282.274 74.1282C281.855 73.9578 281.549 73.7447 281.358 73.4748C281.159 73.2049 281.024 72.8426 280.953 72.388C280.896 72.0684 280.86 71.415 280.86 70.4277V65.8463H279.532V63.6445H280.86V61.5633L283.751 59.9297V63.6445H285.733H285.726Z" fill="white"/>
<path d="M294.42 68C294.398 67.1974 294.185 66.5865 293.773 66.1675C293.361 65.7484 292.864 65.5353 292.274 65.5353C291.642 65.5353 291.124 65.7555 290.712 66.1959C290.3 66.6363 290.101 67.24 290.108 67.9929H294.42V68ZM294.249 70.8056L297.14 71.2673C296.771 72.283 296.181 73.0501 295.385 73.5828C294.583 74.1084 293.581 74.3784 292.381 74.3784C290.477 74.3784 289.071 73.7817 288.155 72.5955C287.437 71.6438 287.075 70.4363 287.075 68.9802C287.075 67.2471 287.551 65.8834 288.496 64.9032C289.44 63.9159 290.641 63.4258 292.09 63.4258C293.716 63.4258 294.995 63.9372 295.94 64.9671C296.877 65.997 297.332 67.5738 297.289 69.6976H290.051C290.073 70.5215 290.307 71.1608 290.754 71.6154C291.195 72.0699 291.756 72.3043 292.417 72.3043C292.871 72.3043 293.248 72.1836 293.553 71.9492C293.865 71.7148 294.093 71.3312 294.256 70.8056H294.249Z" fill="white"/>
<path d="M318.313 68.6563L321.268 69.5228C320.814 71.1138 320.061 72.2929 319.002 73.0671C317.944 73.8342 316.609 74.2249 314.989 74.2249C312.979 74.2249 311.331 73.5714 310.039 72.2574C308.746 70.9434 308.1 69.1535 308.1 66.8735C308.1 64.4656 308.753 62.5976 310.046 61.2693C311.346 59.934 313.05 59.2734 315.167 59.2734C317.014 59.2734 318.519 59.799 319.67 60.8432C320.359 61.4611 320.87 62.349 321.219 63.5138L318.2 64.2028C318.022 63.457 317.646 62.8675 317.085 62.4271C316.516 61.9938 315.827 61.7807 315.018 61.7807C313.896 61.7807 312.986 62.1643 312.29 62.9314C311.587 63.6985 311.239 64.9415 311.239 66.6675C311.239 68.4929 311.587 69.7927 312.269 70.5669C312.958 71.3411 313.853 71.7318 314.954 71.7318C315.764 71.7318 316.467 71.4832 317.049 70.9931C317.632 70.4959 318.058 69.7217 318.306 68.6634" fill="white"/>
<path d="M326.055 68.7731C326.055 69.8102 326.311 70.6128 326.822 71.1597C327.341 71.7137 327.973 71.9907 328.726 71.9907C329.479 71.9907 330.111 71.7137 330.622 71.1597C331.134 70.6057 331.389 69.8031 331.389 68.7518C331.389 67.7006 331.134 66.9335 330.622 66.3866C330.111 65.8326 329.479 65.5556 328.726 65.5556C327.973 65.5556 327.334 65.8326 326.822 66.3866C326.311 66.9406 326.055 67.7361 326.055 68.7731ZM323.079 68.624C323.079 67.7006 323.313 66.8128 323.789 65.9533C324.265 65.0868 324.933 64.4333 325.807 63.9787C326.673 63.5242 327.639 63.2969 328.712 63.2969C330.367 63.2969 331.723 63.8083 332.782 64.8382C333.84 65.8681 334.365 67.1679 334.365 68.7447C334.365 70.3216 333.833 71.6498 332.767 72.6868C331.695 73.7309 330.352 74.2494 328.733 74.2494C327.731 74.2494 326.773 74.0292 325.863 73.596C324.954 73.1627 324.265 72.5234 323.789 71.6853C323.313 70.8472 323.079 69.8244 323.079 68.624Z" fill="white"/>
<path d="M336.44 63.5171H339.096V64.9447C340.048 63.8438 341.184 63.2969 342.506 63.2969C343.209 63.2969 343.812 63.4318 344.324 63.7088C344.842 63.9858 345.261 64.4049 345.588 64.9589C346.071 64.3978 346.59 63.9858 347.144 63.7088C347.698 63.4318 348.294 63.2969 348.926 63.2969C349.729 63.2969 350.404 63.4531 350.965 63.7657C351.519 64.0782 351.938 64.5328 352.208 65.1436C352.407 65.5911 352.506 66.3085 352.506 67.31V73.9937H349.615V68.0203C349.615 66.9832 349.516 66.3085 349.317 66.0101C349.047 65.6195 348.635 65.4206 348.081 65.4206C347.676 65.4206 347.293 65.5414 346.938 65.7758C346.583 66.0173 346.32 66.3582 346.164 66.8128C346.007 67.2674 345.929 67.9918 345.929 68.972V73.9937H343.038V68.2617C343.038 67.246 342.989 66.5855 342.882 66.2943C342.783 65.996 342.619 65.7758 342.406 65.6337C342.193 65.4916 341.895 65.4206 341.525 65.4206C341.078 65.4206 340.68 65.5343 340.325 65.7616C339.97 65.996 339.714 66.3227 339.558 66.7559C339.402 67.1892 339.323 67.9066 339.323 68.9152V73.9937H336.433V63.5171H336.44Z" fill="white"/>
<path d="M354.36 63.5138H355.966V62.7254C355.966 61.8447 356.065 61.1841 356.264 60.7508C356.463 60.3105 356.825 59.9624 357.351 59.6854C357.883 59.4155 358.551 59.2734 359.361 59.2734C360.17 59.2734 361.001 59.3942 361.797 59.6286L361.428 61.5534C360.959 61.4469 360.504 61.3972 360.064 61.3972C359.624 61.3972 359.332 61.4895 359.141 61.6813C358.956 61.8731 358.856 62.2353 358.856 62.768V63.5138H361.03V65.6944H358.856V73.9905H355.966V65.6944H354.36V63.5138Z" fill="white"/>
<path d="M364.994 68.7731C364.994 69.8102 365.249 70.6128 365.761 71.1597C366.279 71.7137 366.911 71.9907 367.664 71.9907C368.417 71.9907 369.049 71.7137 369.561 71.1597C370.072 70.6057 370.328 69.8031 370.328 68.7518C370.328 67.7006 370.072 66.9335 369.561 66.3866C369.049 65.8326 368.417 65.5556 367.664 65.5556C366.911 65.5556 366.272 65.8326 365.761 66.3866C365.249 66.9406 364.994 67.7361 364.994 68.7731ZM362.018 68.624C362.018 67.7006 362.252 66.8128 362.728 65.9533C363.204 65.0868 363.871 64.4333 364.745 63.9787C365.612 63.5242 366.578 63.2969 367.65 63.2969C369.305 63.2969 370.662 63.8083 371.72 64.8382C372.778 65.8681 373.304 67.1679 373.304 68.7447C373.304 70.3216 372.771 71.6498 371.706 72.6868C370.64 73.7309 369.291 74.2494 367.671 74.2494C366.67 74.2494 365.711 74.0292 364.802 73.596C363.893 73.1627 363.204 72.5234 362.728 71.6853C362.252 70.8472 362.018 69.8244 362.018 68.624Z" fill="white"/>
<path d="M378.105 73.9852H375.214V63.5085H377.892V64.993C378.353 64.2899 378.765 63.8282 379.135 63.608C379.504 63.3878 379.923 63.2812 380.392 63.2812C381.052 63.2812 381.692 63.4588 382.302 63.7998L381.408 66.2147C380.917 65.9093 380.463 65.7601 380.044 65.7601C379.625 65.7601 379.291 65.8667 379.007 66.0798C378.723 66.2929 378.502 66.6764 378.339 67.2375C378.176 67.7986 378.098 68.9635 378.098 70.7463V73.9781L378.105 73.9852Z" fill="white"/>
<path d="M389.391 63.5117V65.7135H387.409V69.9539C387.409 70.8134 387.431 71.3177 387.466 71.4597C387.502 71.6018 387.587 71.7154 387.729 71.8149C387.864 71.9072 388.027 71.9498 388.219 71.9498C388.489 71.9498 388.88 71.8646 389.384 71.687L389.625 73.8392C388.951 74.1162 388.198 74.2511 387.345 74.2511C386.827 74.2511 386.358 74.1659 385.939 73.9954C385.52 73.825 385.214 73.6119 385.023 73.342C384.824 73.0721 384.689 72.7098 384.618 72.2552C384.561 71.9356 384.525 71.2822 384.525 70.2949V65.7135H383.197V63.5117H384.525V61.4305L387.416 59.7969V63.5117H389.398H389.391Z" fill="white"/>
<path d="M305.677 67.2383H299.98V70.0013H305.677V67.2383Z" fill="white"/>
</svg>
