<svg width="199" height="43" viewBox="0 0 199 43" fill="none" xmlns="http://www.w3.org/2000/svg">
<path d="M174.759 22.2287V21.2572L175.993 21.2091C176.4 21.1916 176.658 21.1347 176.776 21.0297C176.899 20.9247 176.955 20.6971 176.955 20.3558V13.3412C176.955 12.9736 176.855 12.7285 176.645 12.6016C176.435 12.4791 176.002 12.4178 175.341 12.4178C175.253 12.4178 175.113 12.4178 174.921 12.431C174.728 12.4397 174.571 12.4441 174.461 12.4441V11.5426L179.424 11.2582V13.4768C180.027 12.7198 180.688 12.1553 181.406 11.8008C182.123 11.4376 182.933 11.2582 183.843 11.2582C184.845 11.2582 185.668 11.442 186.316 11.8139C186.963 12.1815 187.432 12.7285 187.729 13.4549C188.355 12.6891 189.024 12.1334 189.742 11.7833C190.455 11.4332 191.291 11.2582 192.236 11.2582C193.575 11.2582 194.608 11.5776 195.343 12.2209C196.074 12.8642 196.442 13.7744 196.442 14.9559V20.3602C196.442 20.6971 196.503 20.9203 196.625 21.0297C196.748 21.1391 197.006 21.2004 197.404 21.2135L198.638 21.2616V22.2331H191.716V21.2616L192.862 21.2135C193.26 21.196 193.523 21.1347 193.654 21.0166C193.785 20.9028 193.851 20.684 193.851 20.3602V14.8684C193.851 14.1682 193.637 13.63 193.208 13.258C192.779 12.8817 192.158 12.6935 191.357 12.6935C190.197 12.6935 189.331 13.013 188.757 13.6518C188.189 14.2907 187.9 15.2578 187.9 16.5487V20.3602C187.9 20.6971 187.961 20.9203 188.092 21.0297C188.219 21.1391 188.477 21.2004 188.876 21.2135L190.11 21.2616V22.2331H183.187V21.2616L184.36 21.2135C184.745 21.196 185.003 21.1347 185.13 21.0209C185.261 20.9072 185.322 20.6884 185.322 20.3602V15.2053C185.322 14.3126 185.134 13.6693 184.762 13.2755C184.39 12.8861 183.786 12.6891 182.946 12.6891C181.839 12.6891 181.003 13.013 180.439 13.6606C179.874 14.3126 179.59 15.2709 179.59 16.5443V20.3558C179.59 20.7059 179.651 20.9334 179.774 21.0384C179.9 21.1391 180.154 21.196 180.553 21.2135L181.646 21.2616V22.2331H174.776L174.759 22.2287ZM162.742 16.8944C162.742 18.5398 163.022 19.7475 163.583 20.5133C164.147 21.2747 165.031 21.6555 166.243 21.6555C167.455 21.6555 168.405 21.2791 168.969 20.5265C169.529 19.7782 169.81 18.566 169.81 16.8944C169.81 15.2228 169.529 14.0107 168.969 13.2536C168.405 12.4966 167.503 12.1159 166.269 12.1159C165.035 12.1159 164.147 12.4966 163.583 13.2536C163.022 14.0107 162.742 15.2272 162.742 16.8944ZM159.754 16.8944C159.754 15.1878 160.358 13.8094 161.565 12.7548C162.773 11.6958 164.34 11.1707 166.265 11.1707C168.19 11.1707 169.77 11.6958 170.969 12.7548C172.168 13.8094 172.768 15.1922 172.768 16.8944C172.768 18.5967 172.168 19.9707 170.965 21.0253C169.761 22.0755 168.195 22.605 166.265 22.605C164.335 22.605 162.773 22.0799 161.565 21.0253C160.358 19.9707 159.754 18.5967 159.754 16.8944ZM147.794 16.8944C147.794 18.5398 148.074 19.7475 148.634 20.5133C149.199 21.2747 150.083 21.6555 151.295 21.6555C152.507 21.6555 153.457 21.2791 154.021 20.5265C154.581 19.7782 154.861 18.566 154.861 16.8944C154.861 15.2228 154.581 14.0107 154.021 13.2536C153.457 12.4966 152.555 12.1159 151.321 12.1159C150.087 12.1159 149.199 12.4966 148.634 13.2536C148.074 14.0107 147.794 15.2272 147.794 16.8944ZM144.805 16.8944C144.805 15.1878 145.409 13.8094 146.617 12.7548C147.825 11.6958 149.391 11.1707 151.317 11.1707C153.242 11.1707 154.822 11.6958 156.021 12.7548C157.22 13.8094 157.819 15.1922 157.819 16.8944C157.819 18.5967 157.22 19.9707 156.017 21.0253C154.813 22.0755 153.247 22.605 151.317 22.605C149.387 22.605 147.825 22.0799 146.617 21.0253C145.409 19.9707 144.805 18.5967 144.805 16.8944ZM135.922 22.2287V21.2572L137.309 21.2091C137.708 21.1916 137.97 21.1303 138.101 21.0253C138.233 20.9159 138.298 20.6927 138.298 20.3558V7.2192C138.298 6.85162 138.198 6.60657 137.988 6.47966C137.782 6.35714 137.353 6.29588 136.71 6.29588C136.631 6.29588 136.5 6.29587 136.312 6.309C136.123 6.31775 135.97 6.32213 135.857 6.32213V5.42069L140.941 5.14062V20.3602C140.941 20.6971 141.003 20.9203 141.134 21.0297C141.261 21.1391 141.528 21.2004 141.93 21.2135L143.191 21.2616V22.2331H135.909L135.922 22.2287ZM121.972 7.61741V13.0873H124.291C126.313 13.0873 127.713 12.8467 128.501 12.3566C129.288 11.8665 129.686 11.0263 129.686 9.82727C129.686 8.62826 129.345 7.85371 128.654 7.35485C127.967 6.856 126.825 6.60657 125.241 6.60657H123.416C122.851 6.60657 122.466 6.67221 122.269 6.80786C122.072 6.93914 121.972 7.21045 121.972 7.62179V7.61741ZM115.819 22.2287V21.1478H117.324C117.937 21.1478 118.348 21.0691 118.558 20.9159C118.764 20.7628 118.869 20.4652 118.869 20.032V7.75307C118.869 7.32422 118.768 7.03541 118.558 6.87788C118.348 6.72472 117.941 6.64595 117.324 6.64595H115.819V5.55196H126.785C128.82 5.55196 130.373 5.89766 131.441 6.58906C132.509 7.27609 133.043 8.29131 133.043 9.6216C133.043 10.6193 132.636 11.442 131.818 12.0896C130.999 12.7373 129.783 13.1967 128.172 13.4768C130.163 13.6781 131.656 14.1332 132.64 14.8377C133.625 15.5466 134.119 16.5137 134.119 17.7477C134.119 19.1655 133.445 20.2683 132.106 21.0472C130.767 21.8305 128.873 22.22 126.426 22.22H115.819V22.2287ZM121.972 14.1026V20.0539C121.972 20.4958 122.077 20.789 122.291 20.929C122.506 21.0735 122.926 21.1435 123.56 21.1435H125.63C127.385 21.1435 128.654 20.8722 129.424 20.3295C130.198 19.7826 130.584 18.903 130.584 17.6865C130.584 16.4087 130.12 15.4897 129.196 14.934C128.269 14.3783 126.733 14.0982 124.58 14.0982H121.972V14.1026ZM100.381 7.22358C100.381 6.856 100.276 6.61094 100.061 6.48404C99.8469 6.36151 99.4137 6.30025 98.7529 6.30025C98.6741 6.30025 98.5385 6.30025 98.3459 6.31338C98.1534 6.32213 97.9958 6.32651 97.8864 6.32651V5.42506L103.015 5.145V13.3499C103.588 12.6498 104.258 12.129 105.015 11.7833C105.781 11.4376 106.638 11.2626 107.601 11.2626C108.988 11.2626 110.069 11.582 110.831 12.2253C111.596 12.8686 111.977 13.7787 111.977 14.9603V20.3646C111.977 20.7015 112.038 20.9247 112.161 21.0341C112.283 21.1435 112.542 21.2047 112.94 21.2179L114.187 21.266V22.2375H107.19V21.266L108.437 21.2179C108.822 21.2004 109.08 21.1391 109.207 21.0253C109.338 20.9115 109.4 20.6927 109.4 20.3646V14.8727C109.4 14.1726 109.168 13.6343 108.704 13.2624C108.244 12.8861 107.588 12.6979 106.735 12.6979C105.501 12.6979 104.564 13.0217 103.93 13.6693C103.299 14.3214 102.98 15.2797 102.98 16.5531V20.3646C102.98 20.7146 103.041 20.9422 103.173 21.0472C103.3 21.1478 103.553 21.2047 103.943 21.2222L105.19 21.2704V22.2418H98.1665V21.2704L99.383 21.2222C99.79 21.2047 100.057 21.1435 100.179 21.0384C100.311 20.929 100.372 20.7015 100.372 20.3689V7.23233L100.381 7.22358ZM88.8064 12.5622H86.4871V11.6345C87.6861 11.5601 88.6138 11.1182 89.279 10.3086C89.9354 9.49469 90.3029 8.3482 90.3686 6.856H91.5851V11.547H95.7641V12.5622H91.445V19.2356C91.445 19.9795 91.5763 20.4958 91.8389 20.7759C92.0971 21.056 92.5347 21.2004 93.1604 21.2004C93.9437 21.2004 94.5301 20.9466 94.9152 20.4389C95.3003 19.9313 95.5191 19.1393 95.5672 18.0628L96.6437 18.0497V18.356C96.6437 19.7475 96.2586 20.8065 95.4841 21.5373C94.7095 22.2637 93.5849 22.6313 92.1146 22.6313C90.9156 22.6313 90.0623 22.395 89.5634 21.9268C89.0645 21.4585 88.8151 20.6271 88.8151 19.4412V12.5666L88.8064 12.5622ZM78.9167 20.3602C78.9167 20.7015 78.978 20.929 79.1005 21.0341C79.2274 21.1435 79.4812 21.2004 79.8794 21.2135L81.6386 21.2616V22.2331H74.0025V21.2616L75.3591 21.2135C75.7573 21.196 76.0155 21.1391 76.138 21.0341C76.2605 20.929 76.3218 20.7015 76.3218 20.3602V13.3499C76.3218 12.9823 76.2211 12.7373 76.0155 12.6191C75.8142 12.5053 75.3328 12.4441 74.5801 12.4441H73.7137V11.5426L78.7548 11.2626V14.5183C79.2099 13.4287 79.7963 12.6016 80.5096 12.0415C81.2316 11.477 82.0586 11.1969 82.9907 11.1969C83.7653 11.1969 84.4041 11.3807 84.8943 11.7571C85.3931 12.129 85.6382 12.5972 85.6382 13.1617C85.6382 13.5818 85.4806 13.9275 85.1656 14.1945C84.8461 14.4614 84.4435 14.5927 83.9534 14.5927C83.4283 14.5927 83.0126 14.4745 82.7019 14.2382C82.3956 13.9975 82.2424 13.6781 82.2424 13.2711C82.2424 13.0611 82.2949 12.8686 82.3956 12.6935C82.5006 12.5229 82.6406 12.3828 82.8201 12.2778H82.6494C81.6386 12.2778 80.7634 12.8204 80.0194 13.9013C79.2799 14.9821 78.908 16.3124 78.908 17.8921V20.3646L78.9167 20.3602ZM62.1437 16.8988C62.1437 18.5442 62.4238 19.7519 62.9839 20.5177C63.5484 21.2791 64.4323 21.6598 65.6445 21.6598C66.8566 21.6598 67.8062 21.2835 68.3707 20.5308C68.9308 19.7826 69.2109 18.5704 69.2109 16.8988C69.2109 15.2272 68.9308 14.015 68.3707 13.258C67.8062 12.501 66.9047 12.1203 65.6707 12.1203C64.4367 12.1203 63.5484 12.501 62.9839 13.258C62.4238 14.015 62.1437 15.2316 62.1437 16.8988ZM59.1549 16.8988C59.1549 15.1922 59.7588 13.8138 60.9666 12.7592C62.1743 11.7002 63.7409 11.1751 65.6663 11.1751C67.5918 11.1751 69.1715 11.7002 70.3705 12.7592C71.5695 13.8138 72.169 15.1966 72.169 16.8988C72.169 18.601 71.5695 19.9751 70.3661 21.0297C69.1627 22.0799 67.5961 22.6094 65.6663 22.6094C63.7365 22.6094 62.1743 22.0843 60.9666 21.0297C59.7588 19.9751 59.1549 18.601 59.1549 16.8988ZM35.3848 22.2331V21.2397C36.6013 21.161 37.4283 20.9378 37.8616 20.5571C38.2904 20.1764 38.5048 19.4193 38.5048 18.2816V7.38111C38.3079 7.10543 38.0147 6.90851 37.6384 6.79473C37.2621 6.68533 36.6757 6.62407 35.8836 6.62407H35.3848V5.55634H41.0516L52.5998 18.1459V9.5122C52.5998 8.31319 52.3634 7.52114 51.8908 7.13606C51.4226 6.75973 50.5037 6.55843 49.1428 6.5453V5.55196H57.247V6.5453C56.0174 6.58906 55.1816 6.80786 54.744 7.2017C54.2976 7.59553 54.0788 8.3657 54.0788 9.50782V22.64H52.9192L40.0145 8.62388V18.2728C40.0145 19.4456 40.2596 20.2333 40.7497 20.6315C41.2442 21.0297 42.15 21.2266 43.4715 21.2266V22.22H35.3935L35.3848 22.2331Z" fill="white"/>
<path fill-rule="evenodd" clip-rule="evenodd" d="M21.6702 20.985L18.1388 14.8674H25.2016C25.2016 13.2177 25.4773 10.2989 23.1099 10.2333C19.9242 10.1458 18.1695 11.2616 15.9334 11.8568C15.2332 12.0449 19.8498 8.83298 20.76 6.50497C21.0751 5.6998 20.76 4.87274 20.4668 4.36513C20.1824 3.87503 19.4823 3.41993 18.9309 3.26677C18.3708 3.11361 17.9594 3.03484 17.4431 3.33241C16.9092 3.63873 16.4147 4.2251 16.104 4.83774C15.1763 6.65813 14.7912 8.66669 13.9423 10.8022C13.3909 8.71045 12.9315 5.69542 11.7937 4.19447C10.831 2.92545 9.11125 2.67164 7.95162 4.01068C7.23397 4.83774 6.99329 6.23366 7.44839 7.03009C8.81806 9.4106 12.5464 11.9136 12.1438 11.8086C9.69325 11.1566 8.84432 10.4652 5.97807 10.242C5.21666 10.1808 4.27583 10.3864 3.75509 10.6884C2.39417 11.4717 2.67861 13.5196 2.67861 14.8674H9.74139L6.21 20.985L10.4109 23.4093L13.9423 17.2917L17.4737 23.4093L19.4385 22.2759C19.5523 22.2321 19.666 22.1752 19.7754 22.114C19.8586 22.0658 19.933 22.0133 20.0074 21.9477L21.679 20.985H21.6702ZM21.4952 23.6587C21.3683 23.755 21.2326 23.8425 21.0926 23.9213C20.9394 24.0088 20.7775 24.0919 20.6156 24.1663L16.5022 26.5424L13.9379 22.1009L11.3736 26.5424L2.58671 21.4707L5.15102 17.0335H0.0224052V14.3861C0.0224052 13.8084 -0.0126028 13.2352 0.00490102 12.6532C0.0617884 10.7278 0.670046 8.92487 2.4248 7.91403C3.10745 7.52019 3.96951 7.26201 4.82282 7.15699C4.20144 5.37598 4.7353 3.19238 5.94744 1.79645C8.16167 -0.750352 11.8812 -0.540306 13.8985 2.1159C13.9861 2.22967 14.0692 2.34344 14.148 2.46597C14.66 1.6958 15.3338 1.01316 16.1215 0.558057C17.2899 -0.115839 18.3708 -0.111463 19.6267 0.229861C20.8563 0.566809 22.121 1.45075 22.7598 2.55787C23.5388 3.90566 23.8013 5.50288 23.2237 6.98195C23.2062 7.02133 23.1931 7.06072 23.1756 7.1001C24.4008 7.13511 25.5342 7.58146 26.3831 8.47853C27.9497 10.1326 27.8447 12.2944 27.8447 14.3817V17.0291H22.7205L25.2848 21.4663L21.4908 23.6587H21.4952Z" fill="white"/>
<path d="M198.876 30.0215H116V42.6511H198.876V30.0215Z" fill="#E3000F"/>
<path d="M124.303 37.2567L125.636 37.6738C125.431 38.4396 125.091 39.0072 124.613 39.3799C124.136 39.7491 123.533 39.9371 122.802 39.9371C121.895 39.9371 121.152 39.6226 120.568 38.9901C119.985 38.3576 119.693 37.496 119.693 36.3985C119.693 35.2395 119.988 34.3403 120.572 33.701C121.158 33.0582 121.927 32.7402 122.883 32.7402C123.716 32.7402 124.395 32.9932 124.915 33.4958C125.226 33.7933 125.456 34.2206 125.614 34.7814L124.251 35.113C124.171 34.754 124.001 34.4702 123.748 34.2583C123.492 34.0497 123.181 33.9471 122.815 33.9471C122.309 33.9471 121.899 34.1318 121.584 34.501C121.267 34.8702 121.11 35.4686 121.11 36.2994C121.11 37.178 121.267 37.8037 121.575 38.1764C121.886 38.5491 122.29 38.7371 122.786 38.7371C123.152 38.7371 123.469 38.6174 123.732 38.3815C123.995 38.1422 124.187 37.7695 124.299 37.2601" fill="white"/>
<path d="M128.064 32.8633H126.76V39.8175H128.064V32.8633Z" fill="white"/>
<path d="M129.447 39.8209V34.7779H130.752V39.8209H129.447ZM129.447 34.0975V32.8633H130.752V34.0975H129.447Z" fill="white"/>
<path d="M132.148 34.7779H133.347V35.4651C133.776 34.9351 134.289 34.6719 134.885 34.6719C135.202 34.6719 135.475 34.7368 135.706 34.8702C135.94 35.0035 136.129 35.2052 136.276 35.4719C136.494 35.2018 136.728 35.0035 136.978 34.8702C137.228 34.7368 137.497 34.6719 137.783 34.6719C138.145 34.6719 138.449 34.7471 138.703 34.8975C138.953 35.048 139.142 35.2668 139.263 35.5608C139.353 35.7728 139.398 36.1215 139.398 36.6036V39.8208H138.094V36.9455C138.094 36.4463 138.049 36.1215 137.959 35.9779C137.837 35.7899 137.651 35.6941 137.401 35.6941C137.218 35.6941 137.045 35.7523 136.885 35.8651C136.725 35.9813 136.606 36.1454 136.536 36.3643C136.465 36.5831 136.43 36.9318 136.43 37.4036V39.8208H135.125V37.0617C135.125 36.5728 135.103 36.2549 135.055 36.1147C135.01 35.9711 134.936 35.8651 134.84 35.7967C134.744 35.7283 134.609 35.6941 134.443 35.6941C134.241 35.6941 134.061 35.7488 133.901 35.8583C133.741 35.9711 133.625 36.1284 133.555 36.3369C133.484 36.5455 133.449 36.8908 133.449 37.3763V39.8243H132.145V34.7813L132.148 34.7779Z" fill="white"/>
<path d="M143.473 37.41C143.306 37.4681 143.04 37.5331 142.678 37.6151C142.316 37.6937 142.079 37.7724 141.967 37.8476C141.797 37.9707 141.71 38.128 141.71 38.316C141.71 38.504 141.777 38.6647 141.915 38.8015C142.053 38.9383 142.226 39.0066 142.434 39.0066C142.668 39.0066 142.896 38.928 143.108 38.7707C143.265 38.6476 143.37 38.504 143.419 38.3297C143.451 38.2168 143.47 37.998 143.47 37.6801V37.4134L143.473 37.41ZM141.72 36.333L140.54 36.1176C140.675 35.6253 140.902 35.2594 141.229 35.0235C141.556 34.7876 142.037 34.668 142.678 34.668C143.261 34.668 143.694 34.7363 143.979 34.8799C144.265 35.0201 144.463 35.1979 144.582 35.4167C144.697 35.6321 144.755 36.0287 144.755 36.6099L144.736 38.1656C144.736 38.6066 144.755 38.9348 144.797 39.1434C144.838 39.3554 144.915 39.5776 145.031 39.8169H143.736C143.704 39.728 143.659 39.6015 143.611 39.4272C143.592 39.3485 143.576 39.2972 143.566 39.2733C143.345 39.4955 143.104 39.6631 142.851 39.7759C142.598 39.8887 142.329 39.9434 142.04 39.9434C141.534 39.9434 141.133 39.8033 140.841 39.5195C140.55 39.2391 140.402 38.8835 140.402 38.4528C140.402 38.169 140.47 37.916 140.601 37.6903C140.736 37.4681 140.918 37.2971 141.162 37.1775C141.402 37.0578 141.749 36.9553 142.201 36.8664C142.81 36.7501 143.233 36.6407 143.47 36.5381V36.4048C143.47 36.145 143.409 35.9603 143.284 35.8509C143.159 35.7415 142.925 35.6868 142.579 35.6868C142.345 35.6868 142.165 35.7347 142.034 35.8304C141.902 35.9227 141.797 36.0903 141.717 36.3296L141.72 36.333Z" fill="white"/>
<path d="M148.322 34.7784V35.8382H147.428V37.8794C147.428 38.293 147.438 38.5358 147.454 38.6042C147.47 38.6726 147.508 38.7273 147.572 38.7751C147.633 38.8196 147.707 38.8401 147.793 38.8401C147.915 38.8401 148.092 38.7991 148.319 38.7136L148.428 39.7495C148.124 39.8829 147.784 39.9478 147.399 39.9478C147.165 39.9478 146.954 39.9068 146.765 39.8247C146.575 39.7427 146.438 39.6401 146.351 39.5102C146.261 39.3803 146.2 39.2059 146.168 38.9871C146.143 38.8332 146.127 38.5187 146.127 38.0435V35.8382H145.527V34.7784H146.127V33.7766L147.431 32.9902V34.7784H148.326H148.322Z" fill="white"/>
<path d="M152.246 36.8756C152.236 36.4893 152.14 36.1953 151.954 35.9935C151.768 35.7918 151.544 35.6893 151.278 35.6893C150.993 35.6893 150.759 35.7953 150.573 36.0072C150.387 36.2192 150.297 36.5098 150.3 36.8722H152.246V36.8756ZM152.169 38.2261L153.474 38.4484C153.307 38.9373 153.041 39.3065 152.682 39.5629C152.32 39.8159 151.868 39.9459 151.326 39.9459C150.467 39.9459 149.832 39.6587 149.419 39.0877C149.095 38.6296 148.932 38.0483 148.932 37.3475C148.932 36.5132 149.146 35.8568 149.573 35.385C149.999 34.9097 150.541 34.6738 151.195 34.6738C151.929 34.6738 152.506 34.92 152.932 35.4157C153.355 35.9115 153.56 36.6705 153.541 37.6928H150.275C150.284 38.0894 150.39 38.3971 150.592 38.6159C150.791 38.8347 151.044 38.9475 151.342 38.9475C151.547 38.9475 151.717 38.8894 151.855 38.7766C151.996 38.6638 152.098 38.4791 152.172 38.2261H152.169Z" fill="white"/>
<path d="M163.027 37.1903L164.361 37.6074C164.155 38.3732 163.816 38.9408 163.338 39.3135C162.86 39.6827 162.258 39.8707 161.527 39.8707C160.62 39.8707 159.876 39.5562 159.293 38.9237C158.71 38.2912 158.418 37.4296 158.418 36.3321C158.418 35.1731 158.713 34.2739 159.296 33.6346C159.883 32.9918 160.652 32.6738 161.607 32.6738C162.441 32.6738 163.12 32.9268 163.639 33.4294C163.95 33.7269 164.181 34.1542 164.338 34.7149L162.976 35.0466C162.896 34.6876 162.726 34.4038 162.473 34.1918C162.216 33.9833 161.905 33.8807 161.54 33.8807C161.033 33.8807 160.623 34.0653 160.309 34.4346C159.992 34.8038 159.835 35.4022 159.835 36.233C159.835 37.1116 159.992 37.7373 160.299 38.11C160.61 38.4826 161.014 38.6707 161.511 38.6707C161.876 38.6707 162.194 38.551 162.457 38.3151C162.719 38.0758 162.912 37.7031 163.024 37.1937" fill="white"/>
<path d="M166.521 37.2473C166.521 37.7465 166.636 38.1329 166.867 38.3961C167.101 38.6628 167.386 38.7961 167.726 38.7961C168.066 38.7961 168.351 38.6628 168.582 38.3961C168.813 38.1294 168.928 37.7431 168.928 37.2371C168.928 36.7311 168.813 36.3618 168.582 36.0986C168.351 35.8319 168.066 35.6986 167.726 35.6986C167.386 35.6986 167.098 35.8319 166.867 36.0986C166.636 36.3653 166.521 36.7482 166.521 37.2473ZM165.178 37.1756C165.178 36.7311 165.284 36.3037 165.498 35.89C165.713 35.4729 166.014 35.1584 166.409 34.9395C166.8 34.7207 167.236 34.6113 167.72 34.6113C168.466 34.6113 169.079 34.8575 169.556 35.3532C170.034 35.849 170.271 36.4747 170.271 37.2337C170.271 37.9927 170.031 38.632 169.55 39.1312C169.066 39.6338 168.46 39.8834 167.729 39.8834C167.277 39.8834 166.844 39.7774 166.434 39.5688C166.024 39.3603 165.713 39.0526 165.498 38.6491C165.284 38.2457 165.178 37.7534 165.178 37.1756Z" fill="white"/>
<path d="M171.208 34.7173H172.407V35.4045C172.837 34.8746 173.349 34.6113 173.946 34.6113C174.263 34.6113 174.535 34.6763 174.766 34.8096C175 34.943 175.189 35.1447 175.337 35.4114C175.555 35.1413 175.789 34.943 176.039 34.8096C176.289 34.6763 176.558 34.6113 176.843 34.6113C177.205 34.6113 177.51 34.6865 177.763 34.837C178.013 34.9874 178.202 35.2062 178.324 35.5003C178.414 35.7157 178.459 36.061 178.459 36.543V39.7603H177.154V36.8849C177.154 36.3858 177.109 36.061 177.019 35.9174C176.898 35.7293 176.712 35.6336 176.462 35.6336C176.279 35.6336 176.106 35.6917 175.946 35.8045C175.785 35.9208 175.667 36.0849 175.596 36.3037C175.526 36.5225 175.491 36.8713 175.491 37.3431V39.7603H174.186V37.0012C174.186 36.5123 174.164 36.1943 174.115 36.0541C174.071 35.9105 173.997 35.8045 173.901 35.7362C173.805 35.6678 173.67 35.6336 173.503 35.6336C173.301 35.6336 173.122 35.6883 172.962 35.7977C172.801 35.9105 172.686 36.0678 172.615 36.2764C172.545 36.4849 172.51 36.8302 172.51 37.3157V39.7603H171.205V34.7173H171.208Z" fill="white"/>
<path d="M179.295 34.7149H180.019V34.3354C180.019 33.9115 180.064 33.5935 180.154 33.385C180.244 33.173 180.407 33.0055 180.644 32.8721C180.885 32.7422 181.186 32.6738 181.551 32.6738C181.917 32.6738 182.292 32.732 182.651 32.8448L182.484 33.7713C182.273 33.72 182.067 33.6961 181.869 33.6961C181.67 33.6961 181.539 33.7405 181.452 33.8329C181.369 33.9252 181.324 34.0995 181.324 34.356V34.7149H182.305V35.7646H181.324V39.7579H180.019V35.7646H179.295V34.7149Z" fill="white"/>
<path d="M184.093 37.2473C184.093 37.7465 184.208 38.1329 184.439 38.3961C184.673 38.6628 184.958 38.7961 185.298 38.7961C185.638 38.7961 185.923 38.6628 186.154 38.3961C186.385 38.1294 186.5 37.7431 186.5 37.2371C186.5 36.7311 186.385 36.3618 186.154 36.0986C185.923 35.8319 185.638 35.6986 185.298 35.6986C184.958 35.6986 184.67 35.8319 184.439 36.0986C184.208 36.3653 184.093 36.7482 184.093 37.2473ZM182.75 37.1756C182.75 36.7311 182.856 36.3037 183.071 35.89C183.285 35.4729 183.587 35.1584 183.981 34.9395C184.372 34.7207 184.808 34.6113 185.292 34.6113C186.039 34.6113 186.651 34.8575 187.128 35.3532C187.606 35.849 187.843 36.4747 187.843 37.2337C187.843 37.9927 187.603 38.632 187.122 39.1312C186.641 39.6338 186.032 39.8834 185.301 39.8834C184.849 39.8834 184.417 39.7774 184.006 39.5688C183.596 39.3603 183.285 39.0526 183.071 38.6491C182.856 38.2457 182.75 37.7534 182.75 37.1756Z" fill="white"/>
<path d="M190.01 39.7559H188.705V34.7129H189.913V35.4275C190.122 35.089 190.308 34.8668 190.474 34.7608C190.641 34.6548 190.83 34.6035 191.042 34.6035C191.34 34.6035 191.628 34.689 191.904 34.8531L191.5 36.0155C191.279 35.8685 191.074 35.7967 190.885 35.7967C190.696 35.7967 190.545 35.848 190.417 35.9506C190.288 36.0532 190.189 36.2378 190.115 36.5079C190.042 36.778 190.006 37.3387 190.006 38.1968V39.7525L190.01 39.7559Z" fill="white"/>
<path d="M195.104 34.7139V35.7738H194.209V37.8149C194.209 38.2286 194.219 38.4713 194.235 38.5397C194.251 38.6081 194.289 38.6628 194.354 38.7107C194.414 38.7551 194.488 38.7756 194.575 38.7756C194.697 38.7756 194.873 38.7346 195.1 38.6491L195.209 39.6851C194.905 39.8184 194.565 39.8834 194.18 39.8834C193.946 39.8834 193.735 39.8423 193.546 39.7603C193.357 39.6782 193.219 39.5757 193.132 39.4457C193.043 39.3158 192.982 39.1415 192.95 38.9226C192.924 38.7688 192.908 38.4542 192.908 37.979V35.7738H192.309V34.7139H192.908V33.7121L194.213 32.9258V34.7139H195.107H195.104Z" fill="white"/>
<path d="M157.325 36.5078H154.754V37.8378H157.325V36.5078Z" fill="white"/>
</svg>
